grf
version=1
nRows=6
nColumns=37
inDegrees=no
endheader
time	ground_force_1_vx	ground_force_1_vy	ground_force_1_vz	ground_force_1_px	ground_force_1_py	ground_force_1_pz	ground_moment_1_mx	ground_moment_1_my	ground_moment_1_mz	ground_force_2_vx	ground_force_2_vy	ground_force_2_vz	ground_force_2_px	ground_force_2_py	ground_force_2_pz	ground_moment_2_mx	ground_moment_2_my	ground_moment_2_mz	ground_force_3_vx	ground_force_3_vy	ground_force_3_vz	ground_force_3_px	ground_force_3_py	ground_force_3_pz	ground_moment_3_mx	ground_moment_3_my	ground_moment_3_mz	ground_force_4_vx	ground_force_4_vy	ground_force_4_vz	ground_force_4_px	ground_force_4_py	ground_force_4_pz	ground_moment_4_mx	ground_moment_4_my	ground_moment_4_mz
      0.00000000	      0.00000000	     -0.00000000	      0.00000000	      0.00000000	      0.00000000	      0.00000000	      0.00000000	      0.00000000	      0.00000000	      4.26977444	      8.91014194	   -372.55603027	   -272.33070346	  -1033.16490087	      0.00000000	      0.00000000	      0.00000000	    945.29659281	     -8.98447575	    -39.70789640	   -343.66232300	   -216.35866097	   -777.82525891	      0.00000000	     -0.00000000	     -0.00000000	  -1869.60874440	      0.00000000	     -0.00000000	      0.00000000	      0.00000000	      0.00000000	      0.00000000	      0.00000000	      0.00000000	      0.00000000
      0.01000000	      0.00000000	     -0.00000000	      0.00000000	      0.00000000	      0.00000000	      0.00000000	      0.00000000	      0.00000000	      0.00000000	      3.66990137	      8.78713131	   -376.02633667	   -271.51131177	  -1031.97231284	      0.00000000	      0.00000000	      0.00000000	    898.52194149	     -8.74278984	    -39.31537933	   -338.48370361	   -216.32241713	   -776.24291080	      0.00000000	      0.00000000	     -0.00000000	  -1883.40550944	      0.00000000	     -0.00000000	      0.00000000	      0.00000000	      0.00000000	      0.00000000	      0.00000000	      0.00000000	      0.00000000
      0.02000000	      0.00000000	     -0.00000000	      0.00000000	      0.00000000	      0.00000000	      0.00000000	      0.00000000	      0.00000000	      0.00000000	      3.09413290	      8.71875381	   -383.04016113	   -271.51249783	  -1032.13165353	      0.00000000	     -0.00000000	      0.00000000	    615.58794592	     -9.36672454	    -38.76106943	   -330.39352417	   -215.47090530	   -779.10560850	      0.00000000	      0.00000000	     -0.00000000	  -1776.12099469	      0.00000000	     -0.00000000	      0.00000000	      0.00000000	      0.00000000	      0.00000000	      0.00000000	      0.00000000	      0.00000000
      0.03000000	      0.00000000	     -0.00000000	      0.00000000	      0.00000000	      0.00000000	      0.00000000	      0.00000000	      0.00000000	      0.00000000	      3.73042083	      8.20783234	   -389.49246216	   -271.87530817	  -1031.89961325	      0.00000000	      0.00000000	      0.00000000	    732.73308690	     -9.75818968	    -38.16706000	   -324.61541748	   -214.06254293	   -778.01972586	      0.00000000	      0.00000000	     -0.00000000	  -1666.54697888	      0.00000000	     -0.00000000	      0.00000000	      0.00000000	      0.00000000	      0.00000000	      0.00000000	      0.00000000	      0.00000000
      0.04000000	      0.00000000	     -0.00000000	      0.00000000	      0.00000000	      0.00000000	      0.00000000	      0.00000000	      0.00000000	      0.00000000	      4.01447296	      8.93715572	   -397.87170410	   -271.26510716	  -1031.44930470	      0.00000000	     -0.00000000	      0.00000000	    605.50797000	    -10.05262511	    -37.34804828	   -318.15728760	   -213.49680533	   -776.30672258	      0.00000000	      0.00000000	     -0.00000000	  -1910.05879448	      0.00000000	     -0.00000000	      0.00000000	      0.00000000	      0.00000000	      0.00000000	      0.00000000	      0.00000000	      0.00000000
      0.05000000	      0.00000000	     -0.00000000	      0.00000000	      0.00000000	      0.00000000	      0.00000000	      0.00000000	      0.00000000	      0.00000000	      3.87203145	      9.16844940	   -407.66461182	   -271.70608774	  -1032.10334073	      0.00000000	     -0.00000000	      0.00000000	    609.07328673	    -10.17306551	    -36.47685916	   -309.76309204	   -212.03422100	   -776.81829169	      0.00000000	      0.00000000	     -0.00000000	  -1814.62280771	      0.00000000	     -0.00000000	      0.00000000	      0.00000000	      0.00000000	      0.00000000	      0.00000000	      0.00000000	      0.00000000
